<?xml version="1.0" encoding="utf-8"?>
<!-- Generator: Adobe Illustrator 23.0.2, SVG Export Plug-In . SVG Version: 6.00 Build 0)  -->
<svg version="1.1" id="Layer_1" xmlns="http://www.w3.org/2000/svg" xmlns:xlink="http://www.w3.org/1999/xlink" x="0px" y="0px"
	 viewBox="0 0 674.7 349" style="enable-background:new 0 0 674.7 349;" xml:space="preserve">
<style type="text/css">
	.st0{fill:#FFFFFF;}
</style>
<title>Artboard 1</title>
<g>
	<path class="st0" d="M195.4,139.6h-54.8V157l35.7,0c2.2,0,4,1.8,4,4v30.9h-7.6c-2.2,0-4-1.8-4-4v-22.2h-15.1c-7.7,0-14,6.3-14,14
		l0,0v15.6c0,7.7,6.3,14,14,14h55.8v-55.8C209.4,145.9,203.1,139.6,195.4,139.6z"/>
	<path class="st0" d="M261.7,191.9h-7.6c-2.2,0-4-1.8-4-4v-48.3H235c-7.7,0-14,6.3-14,14v41.8c0,7.7,6.3,14,14,14h55.8v-98.9h-29.1
		L261.7,191.9z"/>
	<path class="st0" d="M343.2,191.9h-7.6c-2.2,0-4-1.8-4-4v-48.3h-29.1v55.8c0,7.7,6.3,14,14,14h26.7v8.7h-39.7v20.4h54.8
		c7.7,0,14-6.3,14-14v-84.9h-29.1V191.9z"/>
	<path class="st0" d="M439.7,139.6h-55.8v55.8c0,7.7,6.3,14,14,14h54.8v-17.4H417c-2.2,0-4-1.8-4-4V157h7.6c2.2,0,4,1.8,4,4v22.2
		h15.1c7.7,0,14-6.3,14-14v-15.6C453.7,145.9,447.4,139.6,439.7,139.6L439.7,139.6z"/>
	<path class="st0" d="M521.1,139.6h-55.8v69.8h29.1V157h7.6c2.2,0,4,1.8,4,4v48.3h29.1v-55.8C535.1,145.9,528.9,139.6,521.1,139.6z"
		/>
</g>
</svg>
